<?xml version="1.0" encoding="UTF-8" standalone="no"?>
<svg width="212px" height="212px" viewBox="0 0 212 212" version="1.1" xmlns="http://www.w3.org/2000/svg" xmlns:xlink="http://www.w3.org/1999/xlink">
    <!-- Generator: Sketch 50.2 (55047) - http://www.bohemiancoding.com/sketch -->
    <title>RedStone_logo</title>
    <desc>Created with Sketch.</desc>
    <g id="RedStone_logo" stroke="none" stroke-width="1" fill="none" fill-rule="evenodd">
        <g id="Group-3-Copy" transform="translate(35.000000, 45.000000)" fill="#FD627A">
            <path d="M119.294738,58.6990652 L100.713441,27.9699842 L110.337756,12.2204141 L138.442369,58.6990652 L119.294738,58.6990652 Z M56.0448628,101.88514 L93.6114464,101.88514 L102.989252,117.256634 L46.8357606,117.256634 L56.0448628,101.88514 Z M93.59798,23.8115145 L55.999601,23.8115145 L46.8095761,8.40394233 L103.012818,8.40394233 L93.59798,23.8115145 Z M93.5695511,93.6170576 L55.9891272,93.6170576 L37.3831421,62.8485153 L55.9891272,32.0795972 L93.5695511,32.0795972 L112.174788,62.8485153 L93.5695511,93.6170576 Z M39.5115711,12.2534865 L48.8658105,27.9357844 L30.2691771,58.6892939 L11.4331421,58.6892939 L39.5115711,12.2534865 Z M11.4245387,66.9573766 L30.2385037,66.9573766 L48.8878803,97.7980767 L39.5246633,113.428135 L11.4245387,66.9573766 Z M110.325411,113.460456 L100.720175,97.7157717 L119.313441,66.9671479 L138.439002,66.9671479 L110.325411,113.460456 Z M113.861446,2.12358188 C113.115187,0.889382623 111.78202,0.135859632 110.344863,0.135859632 L39.5246633,0.135859632 C38.0871322,0.135859632 36.7539651,0.889382623 36.0080798,2.12358188 L0.598354115,60.6837809 C-0.19915212,62.0025401 -0.199526185,63.6576599 0.59798005,64.9764191 L36.0080798,123.536618 C36.7539651,124.771193 38.0871322,125.524716 39.5246633,125.524716 L110.344863,125.524716 C111.78202,125.524716 113.115187,124.771193 113.861446,123.536618 L149.271546,64.9764191 C150.069426,63.6576599 150.069426,62.0025401 149.271546,60.6837809 L113.861446,2.12358188 Z" id="Fill-1"></path>
            <path d="M96.076384,69.2877733 C94.1570574,68.0667278 91.6145387,68.6391046 90.3984539,70.5681986 L83.1157855,82.1205893 C81.9000748,84.0493075 82.4705237,86.6033934 84.3902244,87.8251905 C85.0732668,88.2596407 85.8352369,88.4670944 86.5882294,88.4670944 C87.9509476,88.4670944 89.2848628,87.7872325 90.0681546,86.5447651 L97.3508229,74.9923745 C98.5669077,73.0636563 97.9960848,70.5095704 96.076384,69.2877733" id="Fill-4"></path>
            <path d="M102.063254,58.6498701 C100.105399,57.4923386 97.5823317,58.1488995 96.430212,60.117079 L95.8945511,61.0322054 C94.7424314,63.0000091 95.3962968,65.5338006 97.3552743,66.6913322 C98.0102618,67.0788046 98.7284663,67.2629574 99.4373192,67.2629574 C100.847544,67.2629574 102.22111,66.5338628 102.987943,65.2241234 L103.523603,64.3093728 C104.675723,62.3411932 104.021858,59.8077775 102.063254,58.6498701" id="Fill-6"></path>
        </g>
    </g>
</svg>